<svg width="282" height="42" viewBox="0 0 282 42" fill="none" xmlns="http://www.w3.org/2000/svg">
<path d="M27 10C27 4.47715 31.4772 0 37 0H256V42H27V10Z" fill="#5EB7F7"/>
<path d="M56.2222 19.4653V22.3218H46.9448V19.4653H56.2222ZM48.0312 12.2266V30H44.3691V12.2266H48.0312ZM58.8345 12.2266V30H55.1846V12.2266H58.8345ZM73.9468 27.1436V30H64.4863V27.1436H73.9468ZM65.6826 12.2266V30H62.0205V12.2266H65.6826ZM72.7139 19.4653V22.2485H64.4863V19.4653H72.7139ZM73.9346 12.2266V15.0952H64.4863V12.2266H73.9346ZM83.3096 15.2661L78.4756 30H74.5815L81.1855 12.2266H83.6636L83.3096 15.2661ZM87.3257 30L82.4795 15.2661L82.0889 12.2266H84.5913L91.2319 30H87.3257ZM87.106 23.3838V26.2524H77.7188V23.3838H87.106ZM99.313 12.2266V30H95.6631V12.2266H99.313ZM104.782 12.2266V15.0952H90.2798V12.2266H104.782ZM110.763 12.2266V30H107.113V12.2266H110.763ZM128.659 12.2266V30H124.997L117.855 18.0859V30H114.193V12.2266H117.855L125.009 24.1528V12.2266H128.659ZM145.932 20.7104V27.7539C145.655 28.0876 145.228 28.4497 144.65 28.8403C144.072 29.2228 143.327 29.5524 142.416 29.8291C141.505 30.1058 140.402 30.2441 139.108 30.2441C137.96 30.2441 136.915 30.057 135.971 29.6826C135.027 29.3001 134.213 28.7427 133.529 28.0103C132.854 27.2778 132.333 26.3826 131.967 25.3247C131.601 24.2586 131.417 23.042 131.417 21.6748V20.564C131.417 19.1968 131.592 17.9801 131.942 16.9141C132.3 15.848 132.809 14.9487 133.468 14.2163C134.127 13.4839 134.913 12.9264 135.824 12.5439C136.736 12.1615 137.749 11.9702 138.864 11.9702C140.41 11.9702 141.68 12.2225 142.672 12.7271C143.665 13.2235 144.422 13.9152 144.943 14.8022C145.472 15.6812 145.797 16.6903 145.919 17.8296H142.367C142.278 17.2274 142.107 16.7025 141.854 16.2549C141.602 15.8073 141.24 15.4574 140.768 15.2051C140.304 14.9528 139.702 14.8267 138.961 14.8267C138.351 14.8267 137.806 14.9528 137.326 15.2051C136.854 15.4492 136.455 15.8114 136.129 16.2915C135.804 16.7716 135.556 17.3657 135.385 18.0737C135.214 18.7817 135.128 19.6037 135.128 20.5396V21.6748C135.128 22.6025 135.218 23.4245 135.397 24.1406C135.576 24.8486 135.84 25.4468 136.19 25.9351C136.549 26.4152 136.988 26.7773 137.509 27.0215C138.03 27.2656 138.636 27.3877 139.328 27.3877C139.905 27.3877 140.386 27.3389 140.768 27.2412C141.159 27.1436 141.472 27.0256 141.708 26.8872C141.952 26.7407 142.139 26.6024 142.27 26.4722V23.3228H138.925V20.7104H145.932ZM167.038 27.1436V30H157.577V27.1436H167.038ZM158.773 12.2266V30H155.111V12.2266H158.773ZM165.805 19.4653V22.2485H157.577V19.4653H165.805ZM167.025 12.2266V15.0952H157.577V12.2266H167.025ZM174.63 30H170.761L170.785 27.1436H174.63C175.591 27.1436 176.4 26.9279 177.06 26.4966C177.719 26.0571 178.215 25.4183 178.549 24.5801C178.891 23.7419 179.062 22.7287 179.062 21.5405V20.6738C179.062 19.7624 178.964 18.9608 178.769 18.269C178.581 17.5773 178.301 16.9954 177.926 16.5234C177.552 16.0514 177.092 15.6974 176.547 15.4614C176.002 15.2173 175.375 15.0952 174.667 15.0952H170.688V12.2266H174.667C175.855 12.2266 176.942 12.43 177.926 12.8369C178.919 13.2357 179.778 13.8094 180.502 14.5581C181.226 15.3068 181.784 16.202 182.174 17.2437C182.573 18.2772 182.772 19.4287 182.772 20.6982V21.5405C182.772 22.8019 182.573 23.9535 182.174 24.9951C181.784 26.0368 181.226 26.932 180.502 27.6807C179.786 28.4212 178.927 28.995 177.926 29.4019C176.933 29.8006 175.835 30 174.63 30ZM172.836 12.2266V30H169.174V12.2266H172.836ZM189.328 12.2266V30H185.678V12.2266H189.328ZM200.338 12.2266V30H196.688V12.2266H200.338ZM205.807 12.2266V15.0952H191.305V12.2266H205.807ZM222.152 20.6982V21.5405C222.152 22.8914 221.969 24.104 221.603 25.1782C221.237 26.2524 220.72 27.168 220.053 27.9248C219.385 28.6735 218.588 29.2472 217.66 29.646C216.741 30.0448 215.719 30.2441 214.596 30.2441C213.481 30.2441 212.46 30.0448 211.532 29.646C210.613 29.2472 209.815 28.6735 209.14 27.9248C208.464 27.168 207.939 26.2524 207.565 25.1782C207.199 24.104 207.016 22.8914 207.016 21.5405V20.6982C207.016 19.3392 207.199 18.1266 207.565 17.0605C207.931 15.9863 208.448 15.0708 209.115 14.314C209.791 13.5571 210.588 12.9793 211.508 12.5806C212.436 12.1818 213.457 11.9824 214.572 11.9824C215.695 11.9824 216.716 12.1818 217.636 12.5806C218.563 12.9793 219.361 13.5571 220.028 14.314C220.704 15.0708 221.225 15.9863 221.591 17.0605C221.965 18.1266 222.152 19.3392 222.152 20.6982ZM218.454 21.5405V20.6738C218.454 19.7298 218.368 18.8997 218.197 18.1836C218.026 17.4674 217.774 16.8652 217.44 16.377C217.107 15.8887 216.7 15.5225 216.22 15.2783C215.74 15.026 215.19 14.8999 214.572 14.8999C213.953 14.8999 213.404 15.026 212.924 15.2783C212.452 15.5225 212.049 15.8887 211.715 16.377C211.39 16.8652 211.142 17.4674 210.971 18.1836C210.8 18.8997 210.714 19.7298 210.714 20.6738V21.5405C210.714 22.4764 210.8 23.3065 210.971 24.0308C211.142 24.7469 211.394 25.3532 211.728 25.8496C212.061 26.3379 212.468 26.7082 212.948 26.9604C213.428 27.2127 213.978 27.3389 214.596 27.3389C215.215 27.3389 215.764 27.2127 216.244 26.9604C216.724 26.7082 217.127 26.3379 217.453 25.8496C217.778 25.3532 218.026 24.7469 218.197 24.0308C218.368 23.3065 218.454 22.4764 218.454 21.5405ZM224.789 12.2266H231.417C232.777 12.2266 233.944 12.43 234.921 12.8369C235.906 13.2438 236.662 13.846 237.191 14.6436C237.72 15.4411 237.985 16.4217 237.985 17.5854C237.985 18.5376 237.822 19.3555 237.497 20.0391C237.179 20.7145 236.728 21.2801 236.142 21.7358C235.564 22.1834 234.884 22.5415 234.103 22.8101L232.943 23.4204H227.182L227.157 20.564H231.442C232.085 20.564 232.618 20.45 233.041 20.2222C233.464 19.9943 233.782 19.6769 233.993 19.27C234.213 18.8631 234.323 18.3911 234.323 17.854C234.323 17.2843 234.217 16.792 234.005 16.377C233.794 15.9619 233.472 15.6445 233.041 15.4248C232.61 15.2051 232.069 15.0952 231.417 15.0952H228.451V30H224.789V12.2266ZM234.726 30L230.673 22.0776L234.542 22.0532L238.644 29.8291V30H234.726Z" fill="white"/>
</svg>
